<svg xmlns="http://www.w3.org/2000/svg" xmlns:xlink="http://www.w3.org/1999/xlink" version="1.1" x="0px" y="0px" viewBox="-20 -20 140 140" xml:space="preserve" data-icon="true" fill="#023564"><path d="M62.3,74.6l2.4,2.4H11.9C6.3,77,1.7,72.4,1.7,66.8V25c0-5.6,4.6-10.2,10.2-10.2h61.2c5.6,0,10.2,4.6,10.2,10.2v24.8  c-0.9,0.3-1.8,0.7-2.6,1.2c-2.3-1.4-4.9-2.1-7.7-2.1c-4,0-7.8,1.6-10.6,4.4c-0.1,0.1-0.1,0.2-0.2,0.2l-8.6-8.1L72.9,29  c1.1-0.9,1.2-2.5,0.3-3.5c-0.9-1.1-2.5-1.2-3.5-0.3l-27.2,23l-27.2-23c-1.1-0.9-2.6-0.8-3.5,0.3c-0.9,1.1-0.8,2.6,0.3,3.5l19.4,16.4  L12,63.8c-1,0.9-1.1,2.5-0.1,3.5c0.5,0.5,1.2,0.8,1.8,0.8c0.6,0,1.2-0.2,1.7-0.7l19.9-18.7l5.6,4.7c0.5,0.4,1,0.6,1.6,0.6  s1.2-0.2,1.6-0.6l5.6-4.7l9.6,9.1c-0.9,1.9-1.4,4-1.3,6.2C57.9,68,59.5,71.7,62.3,74.6z M88.3,53.9c-2.7,0-5.2,1-7.1,2.9l-0.5,0.5  l-0.6-0.6c-1.9-1.9-4.4-2.9-7.1-2.9c-2.7,0-5.2,1-7.1,2.9c-1.9,1.9-2.9,4.4-2.9,7.1c0,2.7,1,5.2,2.9,7.1l13.7,13.7  c0.3,0.3,0.7,0.4,1.1,0.4c0.4,0,0.8-0.2,1.1-0.4l13.6-13.6c1.9-1.9,2.9-4.4,2.9-7.1c0-2.7-1-5.2-2.9-7.1  C93.5,55,90.9,53.9,88.3,53.9z"></path></svg>